<svg width="69" height="69" viewBox="0 0 69 69" fill="none" xmlns="http://www.w3.org/2000/svg">
<path d="M34.5 69C53.5538 69 69 53.5538 69 34.5C69 15.4462 53.5538 0 34.5 0C15.4462 0 0 15.4462 0 34.5C0 53.5538 15.4462 69 34.5 69Z" fill="#292E36"/>
<path d="M68.5978 29.2203C68.6252 29.7878 68.6406 30.3576 68.6406 30.9311C68.6559 49.9849 53.2222 65.4434 34.1684 65.4589C17.132 65.4726 2.63617 53.0487 0.0427246 36.2108C1.00813 55.24 17.2172 69.8838 36.2465 68.9184C55.2757 67.953 69.9195 51.7439 68.9541 32.7147C68.8948 31.5445 68.7758 30.3783 68.5978 29.2203Z" fill="#1B1F24"/>
<path d="M46.3473 34.4822L66.901 22.6249C65.5335 18.902 63.5332 15.4431 60.9884 12.401L40.4478 24.2511V0.521069C36.5128 -0.17369 32.4864 -0.17369 28.5513 0.521069V24.1869L8.06661 12.3367C5.49517 15.3949 3.47529 18.877 2.09692 22.6272L22.6518 34.5238L2.09811 46.3751C3.46562 50.098 5.46588 53.5569 8.0107 56.599L28.5513 44.7489V68.4789C32.4864 69.1737 36.5128 69.1737 40.4478 68.4789V44.8131L60.9325 56.6633C63.504 53.6051 65.5238 50.123 66.9022 46.3728L46.3473 34.4822Z" fill="#F6F6E7"/>
<path d="M20.224 61.862C21.5381 61.862 22.6033 60.7968 22.6033 59.4827C22.6033 58.1687 21.5381 57.1034 20.224 57.1034C18.91 57.1034 17.8447 58.1687 17.8447 59.4827C17.8447 60.7968 18.91 61.862 20.224 61.862Z" fill="#F6F6E7"/>
<path d="M48.7758 61.862C50.0899 61.862 51.1551 60.7968 51.1551 59.4827C51.1551 58.1687 50.0899 57.1034 48.7758 57.1034C47.4617 57.1034 46.3965 58.1687 46.3965 59.4827C46.3965 60.7968 47.4617 61.862 48.7758 61.862Z" fill="#F6F6E7"/>
<path d="M63.0517 36.8793C64.3657 36.8793 65.431 35.8141 65.431 34.5C65.431 33.186 64.3657 32.1207 63.0517 32.1207C61.7376 32.1207 60.6724 33.186 60.6724 34.5C60.6724 35.8141 61.7376 36.8793 63.0517 36.8793Z" fill="#F6F6E7"/>
<path d="M48.7758 11.8965C50.0899 11.8965 51.1551 10.8313 51.1551 9.51723C51.1551 8.20318 50.0899 7.13792 48.7758 7.13792C47.4617 7.13792 46.3965 8.20318 46.3965 9.51723C46.3965 10.8313 47.4617 11.8965 48.7758 11.8965Z" fill="#F6F6E7"/>
<path d="M20.224 11.8965C21.5381 11.8965 22.6033 10.8313 22.6033 9.51723C22.6033 8.20318 21.5381 7.13792 20.224 7.13792C18.91 7.13792 17.8447 8.20318 17.8447 9.51723C17.8447 10.8313 18.91 11.8965 20.224 11.8965Z" fill="#F6F6E7"/>
<path d="M5.94816 36.8793C7.26221 36.8793 8.32747 35.8141 8.32747 34.5C8.32747 33.186 7.26221 32.1207 5.94816 32.1207C4.6341 32.1207 3.56885 33.186 3.56885 34.5C3.56885 35.8141 4.6341 36.8793 5.94816 36.8793Z" fill="#F6F6E7"/>
<path d="M50.4829 18.517C41.6557 9.68972 27.344 9.68972 18.5169 18.517C9.68977 27.3442 9.68962 41.6559 18.5169 50.483C27.3441 59.3101 41.6558 59.3102 50.4829 50.483C59.31 41.6558 59.31 27.3442 50.4829 18.517ZM42.8275 48.9234C34.8615 53.5229 24.6754 50.7938 20.0759 42.8279C15.4764 34.8619 18.2055 24.6758 26.1714 20.0763C34.1373 15.4768 44.3235 18.2059 48.923 26.1718C48.9231 26.1719 48.9233 26.1722 48.9233 26.1724C53.5222 34.1382 50.7931 44.324 42.8275 48.9234Z" fill="#292E36"/>
<path d="M47.96 21.0402C40.5265 13.607 28.4744 13.6073 21.0412 21.041C13.6081 28.4747 13.6083 40.5266 21.042 47.9597C28.4754 55.3927 40.5267 55.3927 47.9602 47.9597C55.3937 40.5265 55.394 28.4745 47.9609 21.041C47.9605 21.0407 47.9603 21.0405 47.96 21.0402ZM41.5192 46.6464C34.8116 50.5214 26.2329 48.225 22.3579 41.5175C18.4829 34.8099 20.7792 26.2311 27.4868 22.3561C34.1944 18.4811 42.7731 20.7775 46.6481 27.485C46.6496 27.4877 46.6511 27.4902 46.6526 27.4929C50.5221 34.1997 48.2243 42.7736 41.5192 46.6464Z" fill="#F6F6E7"/>
<path d="M34.4999 51.1552C43.6983 51.1552 51.1551 43.6984 51.1551 34.5C51.1551 25.3016 43.6983 17.8448 34.4999 17.8448C25.3015 17.8448 17.8447 25.3016 17.8447 34.5C17.8447 43.6984 25.3015 51.1552 34.4999 51.1552Z" fill="#292E36"/>
<path d="M24.8436 28.336C24.9516 28.324 25.0836 28.318 25.2396 28.318C25.3956 28.318 25.5396 28.324 25.6716 28.336C25.8036 28.348 25.9176 28.354 26.0136 28.354C25.8456 29.65 25.7616 31.444 25.7616 33.736C25.7616 36.016 25.8096 37.726 25.9056 38.866L27.6516 39.01C27.6756 39.202 27.6876 39.37 27.6876 39.514C27.6876 39.646 27.6696 39.814 27.6336 40.018C26.9256 40.006 26.0796 40 25.0956 40C24.1116 40 23.2716 40.006 22.5756 40.018C22.5396 39.838 22.5216 39.682 22.5216 39.55C22.5216 39.406 22.5336 39.226 22.5576 39.01L24.2676 38.866C24.3636 37.582 24.4116 35.992 24.4116 34.096C24.4116 32.188 24.3756 30.838 24.3036 30.046C22.9596 30.934 22.1736 31.492 21.9456 31.72C21.4776 31.204 21.2016 30.724 21.1176 30.28C21.8856 29.968 23.1276 29.32 24.8436 28.336ZM33.1416 28.21C35.9496 28.21 37.3536 30.22 37.3536 34.24C37.3536 38.26 35.9496 40.27 33.1416 40.27C30.3456 40.27 28.9476 38.26 28.9476 34.24C28.9476 30.22 30.3456 28.21 33.1416 28.21ZM33.1416 29.38C31.3656 29.38 30.4776 31 30.4776 34.24C30.4776 37.48 31.3656 39.1 33.1416 39.1C34.9296 39.1 35.8236 37.48 35.8236 34.24C35.8236 31 34.9296 29.38 33.1416 29.38ZM43.706 28.21C46.514 28.21 47.918 30.22 47.918 34.24C47.918 38.26 46.514 40.27 43.706 40.27C40.91 40.27 39.512 38.26 39.512 34.24C39.512 30.22 40.91 28.21 43.706 28.21ZM43.706 29.38C41.93 29.38 41.042 31 41.042 34.24C41.042 37.48 41.93 39.1 43.706 39.1C45.494 39.1 46.388 37.48 46.388 34.24C46.388 31 45.494 29.38 43.706 29.38Z" fill="white"/>
</svg>
