<svg width="69" height="69" viewBox="0 0 69 69" fill="none" xmlns="http://www.w3.org/2000/svg">
<path d="M34.5 69C53.5538 69 69 53.5538 69 34.5C69 15.4462 53.5538 0 34.5 0C15.4462 0 0 15.4462 0 34.5C0 53.5538 15.4462 69 34.5 69Z" fill="#3C8F59"/>
<path d="M68.598 29.2203C68.6254 29.7878 68.6409 30.3576 68.6409 30.9311C68.6562 49.9849 53.2225 65.4434 34.1687 65.4589C17.1322 65.4726 2.63642 53.0487 0.0429688 36.2108C1.00837 55.24 17.2174 69.8838 36.2467 68.9184C55.276 67.953 69.9197 51.7439 68.9543 32.7147C68.895 31.5445 68.776 30.3783 68.598 29.2203Z" fill="#285E3A"/>
<path d="M46.3473 34.4822L66.901 22.6249C65.5335 18.902 63.5332 15.4431 60.9884 12.401L40.4478 24.2511V0.521069C36.5128 -0.17369 32.4864 -0.17369 28.5513 0.521069V24.1869L8.06661 12.3367C5.49517 15.3949 3.47529 18.877 2.09692 22.6272L22.6518 34.5238L2.09811 46.3751C3.46562 50.098 5.46588 53.5569 8.0107 56.599L28.5513 44.7489V68.4789C32.4864 69.1737 36.5128 69.1737 40.4478 68.4789V44.8131L60.9325 56.6633C63.504 53.6051 65.5238 50.123 66.9022 46.3728L46.3473 34.4822Z" fill="#F6F6E7"/>
<path d="M20.224 61.862C21.5381 61.862 22.6033 60.7968 22.6033 59.4827C22.6033 58.1687 21.5381 57.1034 20.224 57.1034C18.91 57.1034 17.8447 58.1687 17.8447 59.4827C17.8447 60.7968 18.91 61.862 20.224 61.862Z" fill="#F6F6E7"/>
<path d="M48.7758 61.862C50.0899 61.862 51.1551 60.7968 51.1551 59.4827C51.1551 58.1687 50.0899 57.1034 48.7758 57.1034C47.4617 57.1034 46.3965 58.1687 46.3965 59.4827C46.3965 60.7968 47.4617 61.862 48.7758 61.862Z" fill="#F6F6E7"/>
<path d="M63.0519 36.8793C64.366 36.8793 65.4312 35.8141 65.4312 34.5C65.4312 33.186 64.366 32.1207 63.0519 32.1207C61.7379 32.1207 60.6726 33.186 60.6726 34.5C60.6726 35.8141 61.7379 36.8793 63.0519 36.8793Z" fill="#F6F6E7"/>
<path d="M48.7758 11.8965C50.0899 11.8965 51.1551 10.8313 51.1551 9.51723C51.1551 8.20318 50.0899 7.13792 48.7758 7.13792C47.4617 7.13792 46.3965 8.20318 46.3965 9.51723C46.3965 10.8313 47.4617 11.8965 48.7758 11.8965Z" fill="#F6F6E7"/>
<path d="M20.224 11.8965C21.5381 11.8965 22.6033 10.8313 22.6033 9.51723C22.6033 8.20318 21.5381 7.13792 20.224 7.13792C18.91 7.13792 17.8447 8.20318 17.8447 9.51723C17.8447 10.8313 18.91 11.8965 20.224 11.8965Z" fill="#F6F6E7"/>
<path d="M5.9484 36.8793C7.26246 36.8793 8.32771 35.8141 8.32771 34.5C8.32771 33.186 7.26246 32.1207 5.9484 32.1207C4.63435 32.1207 3.56909 33.186 3.56909 34.5C3.56909 35.8141 4.63435 36.8793 5.9484 36.8793Z" fill="#F6F6E7"/>
<path d="M50.4831 18.517C41.6559 9.68972 27.3442 9.68972 18.5171 18.517C9.69001 27.3442 9.68986 41.6559 18.5171 50.483C27.3443 59.3101 41.656 59.3102 50.4831 50.483C59.3102 41.6558 59.3102 27.3442 50.4831 18.517ZM42.8277 48.9234C34.8618 53.5229 24.6757 50.7938 20.0761 42.8279C15.4766 34.8619 18.2057 24.6758 26.1716 20.0763C34.1376 15.4768 44.3237 18.2059 48.9232 26.1718C48.9233 26.1719 48.9235 26.1722 48.9235 26.1724C53.5224 34.1382 50.7933 44.324 42.8277 48.9234Z" fill="#3C8F59"/>
<path d="M47.96 21.0402C40.5265 13.607 28.4744 13.6073 21.0412 21.041C13.6081 28.4747 13.6083 40.5266 21.042 47.9597C28.4754 55.3927 40.5267 55.3927 47.9602 47.9597C55.3937 40.5265 55.394 28.4745 47.9609 21.041C47.9605 21.0407 47.9603 21.0405 47.96 21.0402ZM41.5192 46.6464C34.8116 50.5214 26.2329 48.225 22.3579 41.5175C18.4829 34.8099 20.7792 26.2311 27.4868 22.3561C34.1944 18.4811 42.7731 20.7775 46.6481 27.485C46.6496 27.4877 46.6511 27.4902 46.6526 27.4929C50.5221 34.1997 48.2243 42.7736 41.5192 46.6464Z" fill="#F6F6E7"/>
<path d="M34.5001 51.1552C43.6985 51.1552 51.1553 43.6984 51.1553 34.5C51.1553 25.3016 43.6985 17.8448 34.5001 17.8448C25.3017 17.8448 17.845 25.3016 17.845 34.5C17.845 43.6984 25.3017 51.1552 34.5001 51.1552Z" fill="#3C8F59"/>
<path d="M25.546 30.406C25.726 29.734 26.11 29.2 26.698 28.804C27.298 28.408 28.09 28.21 29.074 28.21C30.07 28.21 30.916 28.486 31.612 29.038C32.308 29.578 32.656 30.352 32.656 31.36C32.656 31.948 32.452 32.59 32.044 33.286C31.648 33.97 31.198 34.576 30.694 35.104C28.942 36.94 27.85 38.158 27.418 38.758C27.814 38.77 28.39 38.776 29.146 38.776C29.902 38.776 30.796 38.734 31.828 38.65L31.882 37.318C32.086 37.282 32.266 37.264 32.422 37.264C32.59 37.264 32.746 37.27 32.89 37.282C32.926 38.266 32.98 39.178 33.052 40.018L32.962 40.108C32.038 40 31.036 39.946 29.956 39.946C28.888 39.946 27.898 39.976 26.986 40.036C26.086 40.096 25.51 40.15 25.258 40.198C25.21 40.054 25.186 39.844 25.186 39.568C25.726 38.596 26.674 37.414 28.03 36.022C28.534 35.506 29.02 34.984 29.488 34.456C30.544 33.304 31.072 32.29 31.072 31.414C31.072 30.886 30.91 30.4 30.586 29.956C30.262 29.5 29.728 29.272 28.984 29.272C28.24 29.272 27.64 29.518 27.184 30.01C27.328 30.19 27.4 30.442 27.4 30.766C27.4 31.078 27.31 31.348 27.13 31.576C26.962 31.792 26.698 31.9 26.338 31.9C25.774 31.9 25.492 31.576 25.492 30.928C25.492 30.688 25.51 30.514 25.546 30.406ZM37.1215 33.052C37.7215 32.944 38.2975 32.89 38.8495 32.89C39.4135 32.89 39.9715 33.004 40.5235 33.232C41.0875 33.448 41.5255 33.742 41.8375 34.114C42.4255 34.834 42.7195 35.704 42.7195 36.724C42.7195 37.744 42.3655 38.59 41.6575 39.262C40.9615 39.934 39.8995 40.27 38.4715 40.27C37.6075 40.27 36.8155 40.048 36.0955 39.604C35.3755 39.148 35.0155 38.5 35.0155 37.66C35.0155 36.94 35.3275 36.58 35.9515 36.58C36.3475 36.58 36.6415 36.706 36.8335 36.958C37.0255 37.198 37.1215 37.492 37.1215 37.84C37.1215 38.176 37.0495 38.446 36.9055 38.65C37.2775 38.962 37.8475 39.118 38.6155 39.118C39.3955 39.118 40.0135 38.878 40.4695 38.398C40.9255 37.918 41.1535 37.342 41.1535 36.67C41.1535 35.986 40.9495 35.374 40.5415 34.834C40.1455 34.294 39.4675 34.024 38.5075 34.024C37.5595 34.024 36.8215 34.204 36.2935 34.564C35.9575 34.564 35.6935 34.528 35.5015 34.456C35.6575 34.012 35.7775 33.238 35.8615 32.134C35.9455 31.018 35.9875 30.16 35.9875 29.56C35.9875 28.948 35.9815 28.552 35.9695 28.372C36.7135 28.444 37.7455 28.48 39.0655 28.48C40.3975 28.48 41.4055 28.432 42.0895 28.336L42.1795 28.426C42.0955 29.35 42.0415 30.202 42.0175 30.982C41.8735 30.994 41.7175 31 41.5495 31C41.3815 31 41.2015 30.982 41.0095 30.946L40.9555 29.722C40.2355 29.686 39.6295 29.674 39.1375 29.686C38.6455 29.686 38.0815 29.686 37.4455 29.686C37.2535 30.898 37.1455 32.02 37.1215 33.052Z" fill="white"/>
</svg>
