<svg width="69" height="69" viewBox="0 0 69 69" fill="none" xmlns="http://www.w3.org/2000/svg">
<path d="M34.5 69C53.5538 69 69 53.5538 69 34.5C69 15.4462 53.5538 0 34.5 0C15.4462 0 0 15.4462 0 34.5C0 53.5538 15.4462 69 34.5 69Z" fill="#DD1C4B"/>
<path d="M68.598 29.2203C68.6254 29.7878 68.6409 30.3576 68.6409 30.9311C68.6562 49.9849 53.2225 65.4434 34.1687 65.4589C17.1322 65.4726 2.63642 53.0487 0.0429688 36.2108C1.00837 55.24 17.2174 69.8838 36.2467 68.9184C55.276 67.953 69.9197 51.7439 68.9543 32.7147C68.895 31.5445 68.776 30.3783 68.598 29.2203Z" fill="#B21D48"/>
<path d="M46.3473 34.4822L66.901 22.6249C65.5335 18.902 63.5332 15.4431 60.9884 12.401L40.4478 24.2511V0.521069C36.5128 -0.17369 32.4864 -0.17369 28.5513 0.521069V24.1869L8.06661 12.3367C5.49517 15.3949 3.47529 18.877 2.09692 22.6272L22.6518 34.5238L2.09811 46.3751C3.46562 50.098 5.46588 53.5569 8.0107 56.599L28.5513 44.7489V68.4789C32.4864 69.1737 36.5128 69.1737 40.4478 68.4789V44.8131L60.9325 56.6633C63.504 53.6051 65.5238 50.123 66.9022 46.3728L46.3473 34.4822Z" fill="#F6F6E7"/>
<path d="M20.2238 61.862C21.5378 61.862 22.6031 60.7968 22.6031 59.4827C22.6031 58.1686 21.5378 57.1034 20.2238 57.1034C18.9097 57.1034 17.8445 58.1686 17.8445 59.4827C17.8445 60.7968 18.9097 61.862 20.2238 61.862Z" fill="#F6F6E7"/>
<path d="M20.2238 11.8965C21.5378 11.8965 22.6031 10.8313 22.6031 9.51723C22.6031 8.20318 21.5378 7.13792 20.2238 7.13792C18.9097 7.13792 17.8445 8.20318 17.8445 9.51723C17.8445 10.8313 18.9097 11.8965 20.2238 11.8965Z" fill="#F6F6E7"/>
<path d="M50.4831 18.517C41.6559 9.68974 27.3442 9.68974 18.5171 18.517C9.69001 27.3442 9.68986 41.6559 18.5171 50.483C27.3443 59.3101 41.656 59.3103 50.4831 50.483C59.3102 41.6558 59.3102 27.3442 50.4831 18.517ZM42.8277 48.9234C34.8618 53.5229 24.6757 50.7938 20.0761 42.8279C15.4766 34.8619 18.2057 24.6758 26.1716 20.0763C34.1376 15.4768 44.3237 18.2059 48.9232 26.1718C48.9233 26.172 48.9235 26.1723 48.9235 26.1724C53.5224 34.1382 50.7933 44.324 42.8277 48.9234Z" fill="#DD1C4B"/>
<path d="M47.96 21.0402C40.5265 13.6069 28.4744 13.6072 21.0412 21.0409C13.6081 28.4746 13.6083 40.5266 21.042 47.9597C28.4754 55.3927 40.5267 55.3927 47.9602 47.9597C55.3937 40.5264 55.394 28.4745 47.9609 21.0409C47.9605 21.0406 47.9603 21.0405 47.96 21.0402ZM41.5192 46.6463C34.8116 50.5213 26.2329 48.225 22.3579 41.5174C18.4829 34.8098 20.7792 26.2311 27.4868 22.3561C34.1944 18.4811 42.7731 20.7774 46.6481 27.485C46.6496 27.4877 46.6511 27.4902 46.6526 27.4929C50.5221 34.1997 48.2243 42.7735 41.5192 46.6463Z" fill="#F6F6E7"/>
<path d="M34.4997 51.1552C43.698 51.1552 51.1548 43.6984 51.1548 34.5C51.1548 25.3016 43.698 17.8448 34.4997 17.8448C25.3013 17.8448 17.8445 25.3016 17.8445 34.5C17.8445 43.6984 25.3013 51.1552 34.4997 51.1552Z" fill="#DD1C4B"/>
<path d="M32.2788 33.052C32.8788 32.944 33.4548 32.89 34.0068 32.89C34.5708 32.89 35.1288 33.004 35.6808 33.232C36.2448 33.448 36.6828 33.742 36.9948 34.114C37.5828 34.834 37.8768 35.704 37.8768 36.724C37.8768 37.744 37.5228 38.59 36.8148 39.262C36.1188 39.934 35.0568 40.27 33.6288 40.27C32.7648 40.27 31.9728 40.048 31.2528 39.604C30.5328 39.148 30.1728 38.5 30.1728 37.66C30.1728 36.94 30.4848 36.58 31.1088 36.58C31.5048 36.58 31.7988 36.706 31.9908 36.958C32.1828 37.198 32.2788 37.492 32.2788 37.84C32.2788 38.176 32.2068 38.446 32.0628 38.65C32.4348 38.962 33.0048 39.118 33.7728 39.118C34.5528 39.118 35.1708 38.878 35.6268 38.398C36.0828 37.918 36.3108 37.342 36.3108 36.67C36.3108 35.986 36.1068 35.374 35.6988 34.834C35.3028 34.294 34.6248 34.024 33.6648 34.024C32.7168 34.024 31.9788 34.204 31.4508 34.564C31.1148 34.564 30.8508 34.528 30.6588 34.456C30.8148 34.012 30.9348 33.238 31.0188 32.134C31.1028 31.018 31.1448 30.16 31.1448 29.56C31.1448 28.948 31.1388 28.552 31.1268 28.372C31.8708 28.444 32.9028 28.48 34.2228 28.48C35.5548 28.48 36.5628 28.432 37.2468 28.336L37.3368 28.426C37.2528 29.35 37.1988 30.202 37.1748 30.982C37.0308 30.994 36.8748 31 36.7068 31C36.5388 31 36.3588 30.982 36.1668 30.946L36.1128 29.722C35.3928 29.686 34.7868 29.674 34.2948 29.686C33.8028 29.686 33.2388 29.686 32.6028 29.686C32.4108 30.898 32.3028 32.02 32.2788 33.052Z" fill="white"/>
<path d="M47.9298 62.2526C49.2439 62.2526 50.3092 61.1874 50.3092 59.8733C50.3092 58.5593 49.2439 57.494 47.9298 57.494C46.6158 57.494 45.5505 58.5593 45.5505 59.8733C45.5505 61.1874 46.6158 62.2526 47.9298 62.2526Z" fill="#F6F6E7"/>
<path d="M62.2055 37.2699C63.5195 37.2699 64.5848 36.2047 64.5848 34.8906C64.5848 33.5765 63.5195 32.5113 62.2055 32.5113C60.8914 32.5113 59.8262 33.5765 59.8262 34.8906C59.8262 36.2047 60.8914 37.2699 62.2055 37.2699Z" fill="#F6F6E7"/>
<path d="M47.9298 12.2871C49.2439 12.2871 50.3092 11.2219 50.3092 9.90781C50.3092 8.59376 49.2439 7.5285 47.9298 7.5285C46.6158 7.5285 45.5505 8.59376 45.5505 9.90781C45.5505 11.2219 46.6158 12.2871 47.9298 12.2871Z" fill="#F6F6E7"/>
<path d="M5.10197 37.2699C6.41602 37.2699 7.48128 36.2047 7.48128 34.8906C7.48128 33.5765 6.41602 32.5113 5.10197 32.5113C3.78791 32.5113 2.72266 33.5765 2.72266 34.8906C2.72266 36.2047 3.78791 37.2699 5.10197 37.2699Z" fill="#F6F6E7"/>
</svg>
