<svg width="69" height="69" viewBox="0 0 69 69" fill="none" xmlns="http://www.w3.org/2000/svg">
<path d="M34.5 69C53.5538 69 69 53.5538 69 34.5C69 15.4462 53.5538 0 34.5 0C15.4462 0 0 15.4462 0 34.5C0 53.5538 15.4462 69 34.5 69Z" fill="#435090"/>
<path d="M68.598 29.2203C68.6254 29.7878 68.6409 30.3576 68.6409 30.9311C68.6562 49.9849 53.2225 65.4434 34.1687 65.4589C17.1322 65.4726 2.63642 53.0487 0.0429688 36.2108C1.00837 55.24 17.2174 69.8838 36.2467 68.9184C55.276 67.953 69.9197 51.7439 68.9543 32.7147C68.895 31.5445 68.776 30.3783 68.598 29.2203Z" fill="#313B6B"/>
<path d="M46.3473 34.4822L66.901 22.6249C65.5335 18.902 63.5332 15.4431 60.9884 12.401L40.4478 24.2511V0.521069C36.5128 -0.17369 32.4864 -0.17369 28.5513 0.521069V24.1869L8.06661 12.3367C5.49517 15.3949 3.47529 18.877 2.09692 22.6272L22.6518 34.5238L2.09811 46.3751C3.46562 50.098 5.46588 53.5569 8.0107 56.599L28.5513 44.7489V68.4789C32.4864 69.1737 36.5128 69.1737 40.4478 68.4789V44.8131L60.9325 56.6633C63.504 53.6051 65.5238 50.123 66.9022 46.3728L46.3473 34.4822Z" fill="#F6F6E7"/>
<path d="M20.224 61.862C21.5381 61.862 22.6033 60.7968 22.6033 59.4827C22.6033 58.1687 21.5381 57.1034 20.224 57.1034C18.91 57.1034 17.8447 58.1687 17.8447 59.4827C17.8447 60.7968 18.91 61.862 20.224 61.862Z" fill="#F6F6E7"/>
<path d="M48.7763 61.862C50.0903 61.862 51.1556 60.7968 51.1556 59.4827C51.1556 58.1687 50.0903 57.1034 48.7763 57.1034C47.4622 57.1034 46.397 58.1687 46.397 59.4827C46.397 60.7968 47.4622 61.862 48.7763 61.862Z" fill="#F6F6E7"/>
<path d="M63.0519 36.8793C64.366 36.8793 65.4312 35.8141 65.4312 34.5C65.4312 33.186 64.366 32.1207 63.0519 32.1207C61.7379 32.1207 60.6726 33.186 60.6726 34.5C60.6726 35.8141 61.7379 36.8793 63.0519 36.8793Z" fill="#F6F6E7"/>
<path d="M48.7763 11.8965C50.0903 11.8965 51.1556 10.8313 51.1556 9.51723C51.1556 8.20318 50.0903 7.13792 48.7763 7.13792C47.4622 7.13792 46.397 8.20318 46.397 9.51723C46.397 10.8313 47.4622 11.8965 48.7763 11.8965Z" fill="#F6F6E7"/>
<path d="M20.224 11.8965C21.5381 11.8965 22.6033 10.8313 22.6033 9.51723C22.6033 8.20318 21.5381 7.13792 20.224 7.13792C18.91 7.13792 17.8447 8.20318 17.8447 9.51723C17.8447 10.8313 18.91 11.8965 20.224 11.8965Z" fill="#F6F6E7"/>
<path d="M5.94791 36.8793C7.26197 36.8793 8.32722 35.8141 8.32722 34.5C8.32722 33.186 7.26197 32.1207 5.94791 32.1207C4.63386 32.1207 3.5686 33.186 3.5686 34.5C3.5686 35.8141 4.63386 36.8793 5.94791 36.8793Z" fill="#F6F6E7"/>
<path d="M50.4831 18.517C41.6559 9.68972 27.3442 9.68972 18.5171 18.517C9.69001 27.3442 9.68986 41.6559 18.5171 50.483C27.3443 59.3101 41.656 59.3102 50.4831 50.483C59.3102 41.6558 59.3102 27.3442 50.4831 18.517ZM42.8277 48.9234C34.8618 53.5229 24.6757 50.7938 20.0761 42.8279C15.4766 34.8619 18.2057 24.6758 26.1716 20.0763C34.1376 15.4768 44.3237 18.2059 48.9232 26.1718C48.9233 26.1719 48.9235 26.1722 48.9235 26.1724C53.5224 34.1382 50.7933 44.324 42.8277 48.9234Z" fill="#435090"/>
<path d="M47.96 21.0402C40.5265 13.607 28.4744 13.6073 21.0412 21.041C13.6081 28.4747 13.6083 40.5266 21.042 47.9597C28.4754 55.3927 40.5267 55.3927 47.9602 47.9597C55.3937 40.5265 55.394 28.4745 47.9609 21.041C47.9605 21.0407 47.9603 21.0405 47.96 21.0402ZM41.5192 46.6464C34.8116 50.5214 26.2329 48.225 22.3579 41.5175C18.4829 34.8099 20.7792 26.2311 27.4868 22.3561C34.1944 18.4811 42.7731 20.7775 46.6481 27.485C46.6496 27.4877 46.6511 27.4902 46.6526 27.4929C50.5221 34.1997 48.2243 42.7736 41.5192 46.6464Z" fill="#F6F6E7"/>
<path d="M34.5001 51.1552C43.6985 51.1552 51.1553 43.6984 51.1553 34.5C51.1553 25.3016 43.6985 17.8448 34.5001 17.8448C25.3017 17.8448 17.845 25.3016 17.845 34.5C17.845 43.6984 25.3017 51.1552 34.5001 51.1552Z" fill="#435090"/>
<path d="M27.4965 33.052C28.0965 32.944 28.6725 32.89 29.2245 32.89C29.7885 32.89 30.3465 33.004 30.8985 33.232C31.4625 33.448 31.9005 33.742 32.2125 34.114C32.8005 34.834 33.0945 35.704 33.0945 36.724C33.0945 37.744 32.7405 38.59 32.0325 39.262C31.3365 39.934 30.2745 40.27 28.8465 40.27C27.9825 40.27 27.1905 40.048 26.4705 39.604C25.7505 39.148 25.3905 38.5 25.3905 37.66C25.3905 36.94 25.7025 36.58 26.3265 36.58C26.7225 36.58 27.0165 36.706 27.2085 36.958C27.4005 37.198 27.4965 37.492 27.4965 37.84C27.4965 38.176 27.4245 38.446 27.2805 38.65C27.6525 38.962 28.2225 39.118 28.9905 39.118C29.7705 39.118 30.3885 38.878 30.8445 38.398C31.3005 37.918 31.5285 37.342 31.5285 36.67C31.5285 35.986 31.3245 35.374 30.9165 34.834C30.5205 34.294 29.8425 34.024 28.8825 34.024C27.9345 34.024 27.1965 34.204 26.6685 34.564C26.3325 34.564 26.0685 34.528 25.8765 34.456C26.0325 34.012 26.1525 33.238 26.2365 32.134C26.3205 31.018 26.3625 30.16 26.3625 29.56C26.3625 28.948 26.3565 28.552 26.3445 28.372C27.0885 28.444 28.1205 28.48 29.4405 28.48C30.7725 28.48 31.7805 28.432 32.4645 28.336L32.5545 28.426C32.4705 29.35 32.4165 30.202 32.3925 30.982C32.2485 30.994 32.0925 31 31.9245 31C31.7565 31 31.5765 30.982 31.3845 30.946L31.3305 29.722C30.6105 29.686 30.0045 29.674 29.5125 29.686C29.0205 29.686 28.4565 29.686 27.8205 29.686C27.6285 30.898 27.5205 32.02 27.4965 33.052ZM39.273 28.21C42.081 28.21 43.485 30.22 43.485 34.24C43.485 38.26 42.081 40.27 39.273 40.27C36.477 40.27 35.079 38.26 35.079 34.24C35.079 30.22 36.477 28.21 39.273 28.21ZM39.273 29.38C37.497 29.38 36.609 31 36.609 34.24C36.609 37.48 37.497 39.1 39.273 39.1C41.061 39.1 41.955 37.48 41.955 34.24C41.955 31 41.061 29.38 39.273 29.38Z" fill="white"/>
</svg>
