<svg width="69" height="69" viewBox="0 0 69 69" fill="none" xmlns="http://www.w3.org/2000/svg">
<path d="M34.5 69C53.5538 69 69 53.5538 69 34.5C69 15.4462 53.5538 0 34.5 0C15.4462 0 0 15.4462 0 34.5C0 53.5538 15.4462 69 34.5 69Z" fill="#E1E3D6"/>
<path d="M68.598 29.2203C68.6254 29.7878 68.6409 30.3576 68.6409 30.9311C68.6562 49.9849 53.2225 65.4434 34.1687 65.4589C17.1322 65.4726 2.63642 53.0487 0.0429688 36.2108C1.00837 55.24 17.2174 69.8838 36.2467 68.9184C55.276 67.953 69.9197 51.7439 68.9543 32.7147C68.895 31.5445 68.776 30.3783 68.598 29.2203Z" fill="#898989"/>
<path d="M46.3473 34.4822L66.901 22.6249C65.5335 18.902 63.5332 15.4431 60.9884 12.401L40.4478 24.2511V0.521069C36.5128 -0.17369 32.4864 -0.17369 28.5513 0.521069V24.1869L8.06661 12.3367C5.49517 15.3949 3.47529 18.877 2.09692 22.6272L22.6518 34.5238L2.09811 46.3751C3.46562 50.098 5.46588 53.5569 8.0107 56.599L28.5513 44.7489V68.4789C32.4864 69.1737 36.5128 69.1737 40.4478 68.4789V44.8131L60.9325 56.6633C63.504 53.6051 65.5238 50.123 66.9022 46.3728L46.3473 34.4822Z" fill="#292E36"/>
<path d="M20.2235 61.862C21.5376 61.862 22.6029 60.7968 22.6029 59.4827C22.6029 58.1687 21.5376 57.1034 20.2235 57.1034C18.9095 57.1034 17.8442 58.1687 17.8442 59.4827C17.8442 60.7968 18.9095 61.862 20.2235 61.862Z" fill="#292E36"/>
<path d="M48.7758 61.862C50.0899 61.862 51.1551 60.7968 51.1551 59.4827C51.1551 58.1687 50.0899 57.1034 48.7758 57.1034C47.4617 57.1034 46.3965 58.1687 46.3965 59.4827C46.3965 60.7968 47.4617 61.862 48.7758 61.862Z" fill="#292E36"/>
<path d="M63.0514 36.8793C64.3655 36.8793 65.4307 35.8141 65.4307 34.5C65.4307 33.186 64.3655 32.1207 63.0514 32.1207C61.7374 32.1207 60.6721 33.186 60.6721 34.5C60.6721 35.8141 61.7374 36.8793 63.0514 36.8793Z" fill="#292E36"/>
<path d="M48.7758 11.8965C50.0899 11.8965 51.1551 10.8313 51.1551 9.51723C51.1551 8.20318 50.0899 7.13792 48.7758 7.13792C47.4617 7.13792 46.3965 8.20318 46.3965 9.51723C46.3965 10.8313 47.4617 11.8965 48.7758 11.8965Z" fill="#292E36"/>
<path d="M20.2235 11.8965C21.5376 11.8965 22.6029 10.8313 22.6029 9.51723C22.6029 8.20318 21.5376 7.13792 20.2235 7.13792C18.9095 7.13792 17.8442 8.20318 17.8442 9.51723C17.8442 10.8313 18.9095 11.8965 20.2235 11.8965Z" fill="#292E36"/>
<path d="M5.94791 36.8793C7.26197 36.8793 8.32722 35.8141 8.32722 34.5C8.32722 33.186 7.26197 32.1207 5.94791 32.1207C4.63386 32.1207 3.5686 33.186 3.5686 34.5C3.5686 35.8141 4.63386 36.8793 5.94791 36.8793Z" fill="#292E36"/>
<path d="M50.4831 18.517C41.6559 9.68972 27.3442 9.68972 18.5171 18.517C9.69001 27.3442 9.68986 41.6559 18.5171 50.483C27.3443 59.3101 41.656 59.3102 50.4831 50.483C59.3102 41.6558 59.3102 27.3442 50.4831 18.517ZM42.8277 48.9234C34.8618 53.5229 24.6757 50.7938 20.0761 42.8279C15.4766 34.8619 18.2057 24.6758 26.1716 20.0763C34.1376 15.4768 44.3237 18.2059 48.9232 26.1718C48.9233 26.1719 48.9235 26.1722 48.9235 26.1724C53.5224 34.1382 50.7933 44.324 42.8277 48.9234Z" fill="#E1E3D6"/>
<path d="M47.96 21.0402C40.5265 13.607 28.4744 13.6073 21.0412 21.041C13.6081 28.4747 13.6083 40.5266 21.042 47.9597C28.4754 55.3927 40.5267 55.3927 47.9602 47.9597C55.3937 40.5265 55.394 28.4745 47.9609 21.041C47.9605 21.0407 47.9603 21.0405 47.96 21.0402ZM41.5192 46.6464C34.8116 50.5214 26.2329 48.225 22.3579 41.5175C18.4829 34.8099 20.7792 26.2311 27.4868 22.3561C34.1944 18.4811 42.7731 20.7775 46.6481 27.485C46.6496 27.4877 46.6511 27.4902 46.6526 27.4929C50.5221 34.1997 48.2243 42.7736 41.5192 46.6464Z" fill="#292E36"/>
<path d="M34.5001 51.1552C43.6985 51.1552 51.1553 43.6984 51.1553 34.5C51.1553 25.3016 43.6985 17.8448 34.5001 17.8448C25.3017 17.8448 17.845 25.3016 17.845 34.5C17.845 43.6984 25.3017 51.1552 34.5001 51.1552Z" fill="#E1E3D6"/>
<path d="M33.851 28.336C33.959 28.324 34.091 28.318 34.247 28.318C34.403 28.318 34.547 28.324 34.679 28.336C34.811 28.348 34.925 28.354 35.021 28.354C34.853 29.65 34.769 31.444 34.769 33.736C34.769 36.016 34.817 37.726 34.913 38.866L36.659 39.01C36.683 39.202 36.695 39.37 36.695 39.514C36.695 39.646 36.677 39.814 36.641 40.018C35.933 40.006 35.087 40 34.103 40C33.119 40 32.279 40.006 31.583 40.018C31.547 39.838 31.529 39.682 31.529 39.55C31.529 39.406 31.541 39.226 31.565 39.01L33.275 38.866C33.371 37.582 33.419 35.992 33.419 34.096C33.419 32.188 33.383 30.838 33.311 30.046C31.967 30.934 31.181 31.492 30.953 31.72C30.485 31.204 30.209 30.724 30.125 30.28C30.893 29.968 32.135 29.32 33.851 28.336Z" fill="#010000"/>
</svg>
